Coordinates
version=1
nRows=24
nColumns=24
inDegrees=yes

Units are S.I. units (second, meters, Newtons, ...)
Angles are in degrees.

endheader
time	pelvis_tilt	pelvis_list	pelvis_rotation	pelvis_tx	pelvis_ty	pelvis_tz	hip_flexion_r	hip_adduction_r	hip_rotation_r	knee_angle_r	ankle_angle_r	subtalar_angle_r	mtp_angle_r	hip_flexion_l	hip_adduction_l	hip_rotation_l	knee_angle_l	ankle_angle_l	subtalar_angle_l	mtp_angle_l	lumbar_extension	lumbar_bending	lumbar_rotation
      0.84683333	     -0.24329723	     -6.09270196	     -3.18938621	     -0.52323802	      1.01428082	      0.32205974	     11.06739374	      9.66947767	     -3.10566435	    -11.63651377	     -3.84880408	    -15.66454944	     -5.37709403	     17.12691299	    -13.11185801	     -8.88555252	    -72.66917628	      1.07166644	    -13.91319140	     -4.71773549	    -11.59216248	      7.79308446	      8.82528194
      0.85100000	     -0.20796502	     -5.99312902	     -3.37442027	     -0.51818828	      1.01511481	      0.32264970	     10.61579919	      9.60391861	     -2.91775141	    -11.49118211	     -3.64399688	    -15.47514835	     -5.34239977	     17.66100737	    -13.03726660	     -8.97357547	    -72.50354742	      1.29382950	    -14.02863086	     -4.84327122	    -11.67301516	      7.61621657	      9.15075909
      0.85516667	     -0.19182488	     -5.93886108	     -3.50590492	     -0.51306139	      1.01589251	      0.32313644	     10.15567960	      9.57747276	     -2.78416725	    -11.27917466	     -3.54075932	    -15.44896843	     -5.33492720	     18.22017500	    -12.99795294	     -9.00373018	    -72.29252571	      1.52323061	    -14.13648671	     -4.86571093	    -11.70577519	      7.52628783	      9.19909506
      0.85933333	     -0.06794058	     -5.81253484	     -3.76435638	     -0.50801020	      1.01688432	      0.32387164	      9.59816343	      9.48886032	     -2.50649084	    -11.11686363	     -3.36227570	    -15.29627344	     -5.26005663	     18.57509279	    -12.92374088	     -9.21885916	    -71.94926163	      1.70575724	    -14.28337782	     -5.11525640	    -11.90217327	      7.29520659	      9.60738986
      0.86350000	     -0.01870159	     -5.71579641	     -3.91471317	     -0.50288358	      1.01771201	      0.32433145	      9.10592390	      9.39989995	     -2.38790187	    -10.91224160	     -3.21570395	    -15.10687061	     -5.21817197	     19.04356004	    -12.83402959	     -9.29801375	    -71.57664073	      1.90585008	    -14.33890071	     -5.23743690	    -11.97443708	      7.14271298	      9.74939047
      0.86766667	      0.05672584	     -5.61205516	     -4.08689978	     -0.49775895	      1.01857817	      0.32483111	      8.58391899	      9.30275295	     -2.25014424	    -10.70458604	     -3.07259226	    -14.93186048	     -5.16839205	     19.45236725	    -12.74499757	     -9.42027377	    -71.12835750	      2.06662055	    -14.46655371	     -5.37287762	    -12.08372022	      6.97147539	      9.94497528
      0.87183333	      0.17042125	     -5.51845120	     -4.26396839	     -0.49262920	      1.01947919	      0.32533409	      8.01468619	      9.21039002	     -2.11392272	    -10.48609120	     -2.92593035	    -14.74309097	     -5.11168962	     19.79461544	    -12.67109601	     -9.56346118	    -70.61532916	      2.23346957	    -14.54117781	     -5.51545340	    -12.23582898	      6.80393284	     10.14568925
      0.87600000	      0.24997291	     -5.41747802	     -4.43510119	     -0.48747353	      1.02030615	      0.32582235	      7.48206357	      9.10681218	     -1.99775763	    -10.26615055	     -2.79084605	    -14.55908839	     -5.05906089	     20.15850851	    -12.58794608	     -9.70701676	    -70.04275999	      2.36914535	    -14.64225686	     -5.63761895	    -12.34059484	      6.61646783	     10.31319585
      0.88016667	      0.38623713	     -5.31494581	     -4.61995633	     -0.48233144	      1.02121054	      0.32629739	      6.88763452	      8.99188135	     -1.87159693	    -10.04360186	     -2.63713890	    -14.34087263	     -4.99469927	     20.42814169	    -12.50135673	     -9.88060183	    -69.39479362	      2.50737212	    -14.71651179	     -5.77614949	    -12.51531360	      6.44742458	     10.52856134
      0.88433333	      0.55712406	     -5.22031097	     -4.81506267	     -0.47718043	      1.02214683	      0.32682178	      6.24833025	      8.88467652	     -1.72959458	     -9.80493169	     -2.51329981	    -14.17302891	     -4.90253058	     20.63287152	    -12.43306695	    -10.08618389	    -68.68624280	      2.64945556	    -14.82287792	     -5.96637280	    -12.73360949	      6.25801896	     10.73289843
      0.88850000	      0.65747259	     -5.11888087	     -4.98476875	     -0.47200998	      1.02292908	      0.32724051	      5.69416526	      8.76079313	     -1.63699445	     -9.58426340	     -2.35398404	    -13.93405016	     -4.83169075	     20.91149382	    -12.34176840	    -10.25380053	    -67.93085906	      2.75338752	    -14.87027967	     -6.10042105	    -12.85458560	      6.08528339	     10.90953030
      0.89266667	      0.79936870	     -5.01206477	     -5.16443944	     -0.46683320	      1.02376228	      0.32768914	      5.09051737	      8.62650766	     -1.54151379	     -9.34984290	     -2.21083980	    -13.70882744	     -4.76217809	     21.11299747	    -12.24955637	    -10.45498098	    -67.10412224	      2.84552087	    -14.91527700	     -6.22647913	    -13.02541394	      5.88542452	     11.09823381
      0.89683333	      0.95296260	     -4.91528952	     -5.34505069	     -0.46164416	      1.02457894	      0.32813495	      4.47113834	      8.49894160	     -1.43907570	     -9.11015862	     -2.07860528	    -13.49236789	     -4.69508962	     21.27921154	    -12.16857450	    -10.66607748	    -66.22370260	      2.94038752	    -14.95506640	     -6.34640749	    -13.20841356	      5.69536165	     11.28679896
      0.90100000	      1.07267138	     -4.81114917	     -5.53528281	     -0.45643583	      1.02532022	      0.32855800	      3.89735081	      8.36029344	     -1.34468026	     -8.88876932	     -1.93800888	    -13.28462287	     -4.63269954	     21.45687234	    -12.08151808	    -10.89590171	    -65.28180428	      3.00830601	    -15.00259578	     -6.45406471	    -13.34496715	      5.52464494	     11.47116292
      0.90516667	      1.28633013	     -4.73063935	     -5.74136271	     -0.45126263	      1.02617605	      0.32903509	      3.20827082	      8.24015640	     -1.19771944	     -8.63337650	     -1.84687039	    -13.10227717	     -4.54279470	     21.50059687	    -12.02519036	    -11.16208013	    -64.28384356	      3.10493926	    -15.06025291	     -6.60996246	    -13.60553488	      5.34102352	     11.70139562
      0.90933333	      1.37154625	     -4.63265311	     -5.92131570	     -0.44605264	      1.02676648	      0.32943292	      2.68056175	      8.10410180	     -1.10898537	     -8.42904410	     -1.66192082	    -12.88243118	     -4.48299465	     21.68526242	    -11.94313282	    -11.39052443	    -63.24861141	      3.14833503	    -15.08353572	     -6.70935741	    -13.69877156	      5.16287535	     11.86412433
      0.91350000	      1.52257283	     -4.53418375	     -6.11802349	     -0.44083608	      1.02745328	      0.32986417	      2.07387700	      7.95991026	     -0.98848065	     -8.20292914	     -1.53662594	    -12.70234118	     -4.42313843	     21.75741030	    -11.86382084	    -11.66213544	    -62.13802220	      3.18990379	    -15.10065780	     -6.81337308	    -13.86895950	      4.97257877	     12.07445330
      0.91766667	      1.69938492	     -4.45383342	     -6.32379698	     -0.43564686	      1.02812745	      0.33033104	      1.43834859	      7.83243684	     -0.83403773	     -7.97245416	     -1.41061819	    -12.53273714	     -4.36095922	     21.77878730	    -11.80882159	    -11.95513111	    -60.98037598	      3.22876183	    -15.12130232	     -6.92291941	    -14.07459341	      4.78307135	     12.28701219
      0.92183333	      1.80304757	     -4.38151007	     -6.52129370	     -0.43042707	      1.02863724	      0.33076152	      0.88985388	      7.71589056	     -0.70353877	     -7.76075165	     -1.28774705	    -12.38179290	     -4.30883214	     21.86810648	    -11.76415374	    -12.23938830	    -59.78742284	      3.25925106	    -15.14737625	     -7.01772973	    -14.19228174	      4.62413979	     12.47459897
      0.92600000	      1.92232258	     -4.31418499	     -6.73037978	     -0.42521532	      1.02913236	      0.33122080	      0.32553548	      7.60159096	     -0.54104950	     -7.54807518	     -1.16584758	    -12.23617998	     -4.25885082	     21.91262779	    -11.72915252	    -12.54964036	    -58.53939436	      3.28319481	    -15.16352852	     -7.11255170	    -14.32959013	      4.45669965	     12.68196074
      0.93016667	      2.02129673	     -4.25825686	     -6.93708442	     -0.42001531	      1.02954792	      0.33166111	     -0.20987428	      7.49815745	     -0.37209808	     -7.34979723	     -1.04272238	    -12.11055920	     -4.21248761	     21.96232622	    -11.70362522	    -12.85840649	    -57.24767657	      3.29375968	    -15.18890748	     -7.20495864	    -14.44453442	      4.31012651	     12.88674259
      0.93433333	      2.16813735	     -4.22935109	     -7.15909364	     -0.41483501	      1.02999819	      0.33215211	     -0.80324769	      7.41738949	     -0.16502189	     -7.13678911	     -0.95247525	    -11.99760240	     -4.15818145	     21.92928705	    -11.71679348	    -13.20722233	    -55.90289962	      3.27280453	    -15.17829881	     -7.31882211	    -14.62404685	      4.17787214	     13.12615737
      0.93850000	      2.20305840	     -4.18851624	     -7.34829556	     -0.40961579	      1.03020424	      0.33254731	     -1.25777392	      7.33135800	     -0.00824713	     -6.96362537	     -0.80563780	    -11.89797096	     -4.12217736	     22.01733084	    -11.70327909	    -13.51115645	    -54.52995372	      3.28516424	    -15.20923755	     -7.39731875	    -14.66203677	      4.05751601	     13.28025903
      0.94266667	      2.30826498	     -4.16941695	     -7.57412480	     -0.40442155	      1.03050691	      0.33303631	     -1.79231833	      7.25913589	      0.20104274	     -6.78108473	     -0.70354527	    -11.81031019	     -4.08083593	     21.98354151	    -11.72951158	    -13.88661445	    -53.08643003	      3.24369495	    -15.19438136	     -7.49719162	    -14.78849087	      3.94155602	     13.52675712
